<svg width="49" height="48" viewBox="0 0 49 48" fill="none" xmlns="http://www.w3.org/2000/svg">
<g clip-path="url(#clip0_9_300)">
<path d="M40.5 24.0974C40.5 32.0827 34.6413 38.7027 26.9933 39.9041V28.7534H30.712L31.42 24.1401H26.9933V21.1467C26.9933 19.8841 27.612 18.6547 29.5933 18.6547H31.6053V14.7267C31.6053 14.7267 29.7787 14.4147 28.0333 14.4147C24.388 14.4147 22.0067 16.6241 22.0067 20.6227V24.1387H17.9547V28.7521H22.0067V39.9027C14.36 38.7001 8.5 32.0814 8.5 24.0974C8.5 15.2614 15.664 8.09741 24.5 8.09741C33.336 8.09741 40.5 15.2601 40.5 24.0974Z" fill="#4C4C4C"/>
</g>
<defs>
<clipPath id="clip0_9_300">
<rect width="32" height="32" fill="white" transform="translate(8.5 8)"/>
</clipPath>
</defs>
</svg>
