<svg width="49" height="48" viewBox="0 0 49 48" fill="none" xmlns="http://www.w3.org/2000/svg">
<g clip-path="url(#clip0_9_304)">
<path d="M38.4533 21.1547C35.6013 21.1547 32.9573 20.2427 30.8 18.6933V29.8733C30.8 35.4573 26.2573 39.9987 20.6747 39.9987C18.5173 39.9987 16.516 39.3187 14.872 38.164C12.2613 36.3307 10.5493 33.2987 10.5493 29.8733C10.5493 24.2893 15.092 19.7467 20.676 19.7467C21.14 19.7467 21.5933 19.7853 22.04 19.8453V21.148V25.4613C21.608 25.3267 21.152 25.248 20.676 25.248C18.1267 25.248 16.052 27.3227 16.052 29.8733C16.052 31.6493 17.06 33.192 18.532 33.9667C19.1733 34.304 19.9027 34.4973 20.6773 34.4973C23.168 34.4973 25.2 32.516 25.2933 30.0467L25.2973 8H30.7987C30.7987 8.47733 30.8453 8.94267 30.928 9.396C31.316 11.492 32.56 13.2907 34.284 14.4147C35.484 15.1973 36.916 15.6547 38.452 15.6547L38.4533 21.1547Z" fill="#4C4C4C"/>
</g>
<defs>
<clipPath id="clip0_9_304">
<rect width="32" height="32" fill="white" transform="translate(8.5 8)"/>
</clipPath>
</defs>
</svg>
