<svg width="319" height="87" viewBox="0 0 319 87" fill="none" xmlns="http://www.w3.org/2000/svg">
<g id="Logo ballet nata 1" clip-path="url(#clip0_1_688)">
<path id="Vector" d="M47.2583 81.3386C47.0563 81.124 46.814 80.9362 46.5447 80.802C46.2754 80.6678 45.9792 80.5605 45.6561 80.48C46.1677 80.319 46.5851 80.0239 46.8947 79.608C47.2044 79.1921 47.3525 78.6823 47.3525 78.0786C47.3525 77.5286 47.2313 77.0725 46.989 76.7103C46.7466 76.348 46.4235 76.0395 46.0196 75.8114C45.6157 75.5833 45.131 75.4224 44.5924 75.3284C44.0539 75.2345 43.4749 75.1809 42.869 75.1809C42.6671 75.1809 42.4382 75.1809 42.1958 75.1943C41.9535 75.2077 41.7111 75.2211 41.4553 75.248C41.1995 75.2748 40.9572 75.3016 40.7283 75.3419C40.4859 75.3821 40.2705 75.4224 40.082 75.476V86.1951C40.2436 86.2353 40.4321 86.2756 40.661 86.3158C40.8898 86.356 41.1322 86.3829 41.3745 86.4097C41.6304 86.4365 41.8727 86.4634 42.1151 86.4768C42.3574 86.4902 42.5728 86.5036 42.7479 86.5036C44.4982 86.5036 45.7907 86.2219 46.6389 85.6719C47.4737 85.1218 47.9045 84.3169 47.9045 83.2705C47.9045 82.8278 47.8507 82.4521 47.7295 82.1301C47.6218 81.8082 47.4602 81.5399 47.2583 81.3252V81.3386ZM41.1726 76.2273C41.3611 76.2005 41.59 76.1736 41.8592 76.1468C42.1285 76.12 42.4651 76.12 42.869 76.12C43.3672 76.12 43.8115 76.1602 44.2289 76.2273C44.6328 76.2944 44.9829 76.4151 45.2791 76.5761C45.5753 76.7371 45.8042 76.9383 45.9657 77.1932C46.1273 77.4481 46.2081 77.7567 46.2081 78.1189C46.2081 78.5214 46.1273 78.8567 45.9792 79.1251C45.8311 79.38 45.6157 79.5946 45.3599 79.7556C45.104 79.9166 44.7809 80.0105 44.4309 80.0776C44.0808 80.1312 43.7038 80.1715 43.2999 80.1715H41.1726V76.2675V76.2273ZM46.4235 84.4242C46.2081 84.7194 45.9253 84.9608 45.5618 85.1352C45.1983 85.3096 44.7944 85.4304 44.3231 85.484C43.8519 85.5511 43.3672 85.5779 42.8825 85.5779C42.5459 85.5779 42.2228 85.5645 41.8996 85.5377C41.5765 85.5109 41.3342 85.484 41.1726 85.4706V81.0703H43.5018C44 81.0703 44.4443 81.0971 44.8482 81.1642C45.2522 81.2313 45.5887 81.3386 45.8715 81.513C46.1542 81.674 46.3697 81.9021 46.5178 82.1972C46.6659 82.479 46.7466 82.8412 46.7466 83.2705C46.7466 83.74 46.6389 84.1291 46.4235 84.4376V84.4242Z" fill="#4C4C4C"/>
<path id="Vector_2" d="M55.0269 78.7897C54.7846 78.5214 54.4749 78.3067 54.0979 78.1457C53.7209 77.9847 53.2497 77.9177 52.6977 77.9177C52.1457 77.9177 51.7014 77.9579 51.3109 78.025C50.9339 78.1055 50.6512 78.186 50.4627 78.2665L50.6108 79.1787C50.7454 79.1251 50.9743 79.058 51.2705 78.9641C51.5667 78.8702 52.0245 78.8299 52.6438 78.8299C53.0747 78.8299 53.4247 78.897 53.6805 79.0312C53.9498 79.1653 54.1518 79.3397 54.2999 79.5678C54.448 79.7958 54.5422 80.0373 54.5826 80.3056C54.623 80.5739 54.6499 80.8557 54.6499 81.1508V81.6606C54.6499 81.6606 54.5288 81.6204 54.4211 81.5935C54.3133 81.5667 54.1787 81.5399 54.0171 81.513C53.8556 81.4862 53.694 81.4594 53.5324 81.446C53.3709 81.4325 53.2093 81.4191 53.0612 81.4191C52.5496 81.4191 52.0918 81.4728 51.661 81.5667C51.2301 81.6606 50.8531 81.8216 50.5435 82.0228C50.2338 82.2241 49.9914 82.4924 49.8164 82.8143C49.6414 83.1363 49.5606 83.5254 49.5606 83.9681C49.5606 84.4108 49.6414 84.8401 49.7895 85.1621C49.951 85.484 50.1665 85.7524 50.4357 85.967C50.705 86.1817 51.0282 86.3292 51.4051 86.4231C51.7821 86.517 52.1861 86.5707 52.6169 86.5707C52.967 86.5707 53.3036 86.5573 53.6267 86.5305C53.9498 86.5036 54.246 86.4634 54.5288 86.4231C54.798 86.3829 55.0269 86.3426 55.2424 86.3024C55.4443 86.2622 55.6059 86.2219 55.7136 86.1951V80.9496C55.7136 80.5069 55.6597 80.1044 55.552 79.7288C55.4443 79.3531 55.2693 79.0312 55.0404 78.7628L55.0269 78.7897ZM54.6499 85.5243C54.4345 85.5645 54.1787 85.6048 53.869 85.6316C53.5594 85.6585 53.2093 85.6719 52.7919 85.6719C52.4553 85.6719 52.1591 85.645 51.8898 85.578C51.634 85.5243 51.4051 85.4304 51.2167 85.2962C51.0282 85.1621 50.8801 85.0011 50.7858 84.7864C50.6916 84.5718 50.6377 84.3035 50.6377 83.9949C50.6377 83.6461 50.7185 83.351 50.8666 83.1363C51.0147 82.9217 51.2166 82.7473 51.4455 82.6265C51.6879 82.5058 51.9437 82.4253 52.2264 82.385C52.5092 82.3448 52.7785 82.3314 53.0343 82.3314C53.4786 82.3314 53.8421 82.3582 54.0979 82.4253C54.3537 82.479 54.5422 82.546 54.6634 82.5997V85.5243H54.6499Z" fill="#4C4C4C"/>
<path id="Vector_3" d="M59.7124 85.3767C59.6181 85.2828 59.5373 85.1621 59.4969 85.0011C59.4431 84.8401 59.4296 84.6389 59.4296 84.384V73.9332L58.3794 74.121V84.4108C58.3794 84.8133 58.4198 85.1352 58.5141 85.4035C58.6083 85.6719 58.743 85.8865 58.918 86.0475C59.093 86.2085 59.3219 86.3426 59.5777 86.4231C59.8335 86.5036 60.1567 86.5439 60.5067 86.5573L60.6548 85.6853C60.4394 85.6584 60.2509 85.6182 60.1028 85.5779C59.9413 85.5377 59.8201 85.4706 59.7258 85.3767H59.7124Z" fill="#4C4C4C"/>
<path id="Vector_4" d="M63.8323 85.3767C63.7381 85.2828 63.6573 85.1621 63.6169 85.0011C63.563 84.8401 63.5496 84.6389 63.5496 84.384V73.9332L62.4994 74.121V84.4108C62.4994 84.8133 62.5398 85.1352 62.634 85.4035C62.7283 85.6719 62.8629 85.8865 63.0379 86.0475C63.213 86.2085 63.4419 86.3426 63.6977 86.4231C63.9535 86.5036 64.2766 86.5439 64.6267 86.5573L64.7748 85.6853C64.5594 85.6584 64.3709 85.6182 64.2228 85.5779C64.0612 85.5377 63.94 85.4706 63.8458 85.3767H63.8323Z" fill="#4C4C4C"/>
<path id="Vector_5" d="M69.7699 77.9042C69.3121 77.9042 68.8544 77.9981 68.4235 78.1725C67.9927 78.347 67.6022 78.6153 67.2656 78.9775C66.929 79.3397 66.6463 79.7958 66.4443 80.3325C66.2289 80.8691 66.1346 81.513 66.1346 82.2375C66.1346 82.868 66.2154 83.4449 66.3635 83.9815C66.5116 84.5181 66.754 84.9742 67.0906 85.3633C67.4272 85.7523 67.8446 86.0475 68.3696 86.2621C68.8813 86.4768 69.5141 86.5841 70.2411 86.5841C70.8066 86.5841 71.2913 86.5305 71.6952 86.4097C72.0991 86.289 72.3954 86.1951 72.5435 86.1012L72.355 85.2023C72.2069 85.2828 71.9645 85.3633 71.6279 85.4706C71.2913 85.5779 70.847 85.6316 70.2681 85.6316C69.2313 85.6316 68.4774 85.3633 68.0061 84.8133C67.5349 84.2632 67.2791 83.4851 67.2521 82.4655H73.1089C73.1089 82.385 73.1224 82.3045 73.1359 82.2241C73.1359 82.1436 73.1359 82.0496 73.1359 81.9692C73.1359 80.5873 72.8262 79.5678 72.2203 78.897C71.6144 78.2262 70.7932 77.9042 69.7699 77.9042ZM67.2656 81.5801C67.2925 81.2179 67.3599 80.8691 67.481 80.5337C67.6022 80.1983 67.7772 79.9032 67.9927 79.6617C68.2081 79.4068 68.4774 79.2055 68.7736 79.058C69.0698 78.9104 69.4064 78.8299 69.7834 78.8299C70.4969 78.8299 71.049 79.0714 71.426 79.5544C71.8164 80.0373 72.0184 80.7081 72.0453 81.5801H67.2656Z" fill="#4C4C4C"/>
<path id="Vector_6" d="M79.235 85.4841C78.9657 85.5914 78.6157 85.6316 78.1714 85.6316C77.9155 85.6316 77.6732 85.6048 77.4578 85.5511C77.2424 85.4975 77.0539 85.3901 76.9058 85.2292C76.7577 85.0682 76.6365 84.8401 76.5557 84.545C76.4749 84.2498 76.4345 83.8608 76.4345 83.3912V78.9641H79.7601V78.0787H76.4345V75.4358L75.3843 75.6236V83.2705C75.3843 83.8339 75.4247 84.3169 75.519 84.7194C75.5998 85.1218 75.7479 85.4706 75.9633 85.739C76.1787 86.0073 76.448 86.2219 76.798 86.3561C77.1481 86.4902 77.579 86.5573 78.0906 86.5573C78.5349 86.5573 78.9388 86.4902 79.3158 86.3695C79.6928 86.2487 79.9621 86.1414 80.1102 86.0341L79.8544 85.1621C79.7062 85.2426 79.4908 85.3365 79.2215 85.4438L79.235 85.4841Z" fill="#4C4C4C"/>
<path id="Vector_7" d="M90.8005 81.4325C90.5043 81.1911 90.1677 80.9764 89.7772 80.7886C89.3868 80.6008 88.9694 80.4264 88.5251 80.2385C88.1616 80.091 87.825 79.9434 87.5018 79.8092C87.1922 79.6751 86.9229 79.5141 86.694 79.3397C86.4651 79.1653 86.2766 78.9641 86.1555 78.7226C86.0208 78.4811 85.967 78.1994 85.967 77.8506C85.967 77.5018 86.0343 77.2335 86.1555 76.992C86.2766 76.7505 86.4517 76.5627 86.6671 76.4017C86.8825 76.2541 87.1383 76.1334 87.4345 76.0663C87.7307 75.9992 88.0539 75.959 88.4039 75.959C88.9156 75.959 89.4003 76.0261 89.8446 76.1468C90.2889 76.2809 90.6659 76.4419 90.9755 76.6566L91.366 75.7443C91.2313 75.6504 91.0563 75.5565 90.8409 75.476C90.6255 75.3955 90.3966 75.315 90.1408 75.248C89.8849 75.1809 89.6157 75.1272 89.3195 75.0735C89.0233 75.0333 88.7405 75.0065 88.4308 75.0065C87.2999 75.0065 86.4247 75.2479 85.7785 75.7443C85.1457 76.2407 84.8225 76.9651 84.8225 77.9177C84.8225 78.3335 84.8898 78.6958 85.0245 79.0177C85.1591 79.3263 85.3611 79.608 85.6169 79.8495C85.8727 80.091 86.1824 80.3056 86.5459 80.4934C86.9094 80.6813 87.3268 80.8691 87.7846 81.0569C88.1481 81.2045 88.4982 81.352 88.8348 81.4862C89.1714 81.6204 89.4676 81.7813 89.7234 81.9692C89.9792 82.157 90.1946 82.385 90.3427 82.6668C90.4908 82.9351 90.5716 83.2839 90.5716 83.6863C90.5716 84.3974 90.3293 84.9072 89.8446 85.2291C89.3599 85.5511 88.6867 85.6987 87.8115 85.6987C87.4345 85.6987 87.0845 85.6719 86.7748 85.6182C86.4651 85.5645 86.1824 85.4974 85.94 85.417C85.6977 85.3365 85.4823 85.256 85.2938 85.1621C85.1053 85.0816 84.9706 85.0011 84.8629 84.934L84.5129 85.8865C84.6206 85.9536 84.7687 86.0207 84.9706 86.1146C85.1726 86.2085 85.4015 86.289 85.6842 86.3695C85.967 86.45 86.2766 86.517 86.6401 86.5707C86.9902 86.6244 87.3941 86.6512 87.8115 86.6512C89.0233 86.6512 89.9657 86.3963 90.6793 85.8999C91.3794 85.3901 91.7295 84.6389 91.7295 83.6327C91.7295 83.1229 91.6487 82.6802 91.4737 82.3314C91.2987 81.9826 91.0698 81.674 90.7736 81.4325H90.8005Z" fill="#4C4C4C"/>
<path id="Vector_8" d="M97.4921 85.4841C97.2228 85.5914 96.8727 85.6316 96.4284 85.6316C96.1726 85.6316 95.9302 85.6048 95.7148 85.5511C95.4994 85.4975 95.3109 85.3901 95.1628 85.2292C95.0147 85.0682 94.8935 84.8401 94.8127 84.545C94.7319 84.2498 94.6916 83.8608 94.6916 83.3912V78.9641H98.0171V78.0787H94.6916V75.4358L93.6414 75.6236V83.2705C93.6414 83.8339 93.6818 84.3169 93.776 84.7194C93.8568 85.1218 94.0049 85.4706 94.2203 85.739C94.4358 86.0073 94.705 86.2219 95.0551 86.3561C95.4051 86.4902 95.836 86.5573 96.3476 86.5573C96.7919 86.5573 97.1958 86.4902 97.5728 86.3695C97.9498 86.2487 98.2191 86.1414 98.3672 86.0341L98.1114 85.1621C97.9633 85.2426 97.7479 85.3365 97.4786 85.4438L97.4921 85.4841Z" fill="#4C4C4C"/>
<path id="Vector_9" d="M105.328 85.4035C105.234 85.4438 105.005 85.4974 104.628 85.5511C104.251 85.6048 103.834 85.6316 103.335 85.6316C102.891 85.6316 102.514 85.5779 102.218 85.4572C101.908 85.3499 101.666 85.1621 101.464 84.9072C101.275 84.6523 101.127 84.3303 101.047 83.9144C100.966 83.4985 100.912 83.0021 100.912 82.4253V78.1055H99.8617V82.7741C99.8617 83.3375 99.9156 83.8607 100.037 84.3303C100.144 84.7998 100.333 85.2023 100.589 85.5377C100.845 85.8731 101.181 86.128 101.612 86.3158C102.029 86.5036 102.554 86.5841 103.174 86.5841C103.941 86.5841 104.588 86.5304 105.113 86.4231C105.638 86.3158 106.055 86.2219 106.365 86.128V78.1055H105.315V85.4035H105.328Z" fill="#4C4C4C"/>
<path id="Vector_10" d="M114.726 78.6018C114.537 78.4677 114.255 78.3201 113.851 78.1591C113.447 77.9981 112.976 77.9311 112.424 77.9311C111.818 77.9311 111.293 78.0384 110.821 78.253C110.35 78.4677 109.96 78.7628 109.636 79.1519C109.313 79.5409 109.071 79.9971 108.909 80.5337C108.748 81.0569 108.654 81.6472 108.654 82.2777C108.654 82.9485 108.748 83.5522 108.95 84.0888C109.152 84.6254 109.435 85.0816 109.785 85.4572C110.148 85.8328 110.579 86.1146 111.077 86.3158C111.575 86.517 112.127 86.6109 112.747 86.6109C113.487 86.6109 114.106 86.5573 114.591 86.4634C115.076 86.3695 115.466 86.2621 115.789 86.1548V73.9332L114.739 74.121V78.5884L114.726 78.6018ZM114.726 85.4304C114.564 85.484 114.322 85.5377 114.012 85.5779C113.689 85.6316 113.272 85.645 112.76 85.645C111.858 85.645 111.131 85.3499 110.579 84.773C110.027 84.1961 109.758 83.351 109.758 82.2643C109.758 81.8082 109.812 81.3655 109.906 80.9496C110 80.5337 110.162 80.1715 110.377 79.8763C110.592 79.5678 110.875 79.3263 111.225 79.1385C111.575 78.9507 112.006 78.8702 112.518 78.8702C112.76 78.8702 113.002 78.897 113.231 78.9372C113.46 78.9909 113.662 79.0446 113.864 79.1251C114.053 79.2055 114.228 79.286 114.376 79.3665C114.524 79.447 114.645 79.5275 114.739 79.608V85.4304H114.726Z" fill="#4C4C4C"/>
<path id="Vector_11" d="M119.075 74.7918C118.859 74.7918 118.671 74.8589 118.523 75.0065C118.375 75.154 118.294 75.3418 118.294 75.5967C118.294 75.8516 118.375 76.0395 118.523 76.187C118.671 76.3346 118.859 76.4017 119.075 76.4017C119.29 76.4017 119.479 76.3346 119.627 76.187C119.775 76.0395 119.856 75.8516 119.856 75.5967C119.856 75.3418 119.775 75.154 119.627 75.0065C119.479 74.8589 119.29 74.7918 119.075 74.7918Z" fill="#4C4C4C"/>
<path id="Vector_12" d="M119.6 78.1055H118.55V86.4231H119.6V78.1055Z" fill="#4C4C4C"/>
<path id="Vector_13" d="M128.419 79.1116C128.082 78.736 127.678 78.4409 127.22 78.2262C126.763 78.0116 126.251 77.9177 125.685 77.9177C125.12 77.9177 124.622 78.025 124.151 78.2262C123.693 78.4409 123.289 78.736 122.952 79.1116C122.616 79.4873 122.346 79.9434 122.158 80.48C121.969 81.0167 121.875 81.6069 121.875 82.2643C121.875 82.9217 121.969 83.512 122.158 84.0486C122.346 84.5852 122.602 85.0413 122.952 85.417C123.289 85.7926 123.693 86.0877 124.151 86.289C124.608 86.4902 125.12 86.5975 125.685 86.5975C126.251 86.5975 126.763 86.4902 127.22 86.289C127.678 86.0743 128.082 85.7926 128.419 85.417C128.755 85.0413 129.024 84.5852 129.213 84.0486C129.401 83.512 129.496 82.9217 129.496 82.2643C129.496 81.6069 129.401 81.0167 129.213 80.48C129.024 79.9434 128.755 79.4873 128.419 79.1116ZM127.651 84.7462C127.166 85.3633 126.507 85.6584 125.685 85.6584C124.864 85.6584 124.204 85.3499 123.72 84.7462C123.235 84.1291 122.993 83.3107 122.993 82.2777C122.993 81.2447 123.235 80.413 123.72 79.7958C124.204 79.1787 124.864 78.8702 125.685 78.8702C126.507 78.8702 127.166 79.1787 127.651 79.7958C128.136 80.413 128.378 81.2447 128.378 82.2777C128.378 83.3107 128.136 84.1425 127.651 84.7462Z" fill="#4C4C4C"/>
<path id="Vector_14" d="M56.6022 42.4335L57.8543 42.7689C58.366 42.8896 58.6891 43.1579 58.8641 43.5604C59.0257 43.9629 59.1065 44.419 59.1065 44.9154V59.1627L46.5043 42.031H39.7858V42.4066L40.4321 43.0506C40.7821 43.386 41.0649 43.6543 41.2668 43.8689C41.4688 44.0836 41.6573 44.3385 41.8188 44.647C41.9804 44.9422 42.2093 45.3983 42.4786 46.002V64.1801C42.4786 64.6899 42.3709 65.1192 42.1689 65.4814C41.9669 65.8437 41.6438 66.0985 41.186 66.2193L39.9339 66.5949V66.9706H45.6964V66.5949L44.552 66.2193C44.0673 66.0717 43.7576 65.8168 43.6095 65.468C43.4614 65.1192 43.3807 64.6899 43.3807 64.1801V47.2497L57.8678 67.0913H59.9951V44.8617C59.9951 44.3519 60.049 43.9226 60.1432 43.5336C60.2374 43.1445 60.5202 42.8896 60.978 42.742L62.0012 42.4066V42.031H56.5753V42.4066L56.6022 42.4335Z" fill="#4C4C4C"/>
<path id="Vector_15" d="M80.6218 65.307C79.5581 65.307 79.0331 64.7436 79.0331 63.6032V55.2453C79.0331 52.7769 78.4137 50.9926 77.1885 49.8925C75.9633 48.7924 74.2264 48.2424 71.978 48.2424C70.5912 48.2424 69.2987 48.4168 68.1138 48.7656C66.929 49.1144 65.9731 49.651 65.246 50.3486C64.519 51.0597 64.1689 51.9183 64.1689 52.9513C64.1689 53.6355 64.3843 54.1721 64.8152 54.5746C65.246 54.977 65.7846 55.1783 66.4443 55.1783C67.1579 55.1783 67.7503 54.9234 68.2215 54.427C68.7062 53.9172 68.9621 53.1257 69.0159 52.039L69.0967 51.6231C69.1909 50.6706 69.4198 49.9864 69.7834 49.5974C70.1334 49.2083 70.6181 49.0071 71.224 49.0071C72.1126 49.0071 72.7589 49.3559 73.1763 50.0535C73.5936 50.7511 73.7956 51.9451 73.7956 53.6623V56.654C73.2436 56.7479 72.705 56.8552 72.2069 56.9357C71.6952 57.0296 71.2509 57.1101 70.847 57.1772C68.2485 57.687 66.3366 58.4248 65.1114 59.431C63.8996 60.4237 63.2938 61.5104 63.2938 62.7044C63.2938 64.2606 63.7919 65.468 64.7883 66.2998C65.7846 67.1315 67.0233 67.5474 68.4908 67.5474C69.7564 67.5474 70.7797 67.2657 71.5875 66.7022C72.3819 66.1388 73.1628 65.4546 73.9168 64.6362C74.1187 65.4948 74.5361 66.179 75.1824 66.7022C75.8287 67.212 76.7038 67.4803 77.8213 67.4803C78.858 67.4803 79.6659 67.3194 80.2313 66.984C80.7968 66.6486 81.3219 66.1924 81.8066 65.5887L81.47 65.2802H80.6353L80.6218 65.307ZM73.7956 63.7911C73.1897 64.3008 72.6646 64.6631 72.2203 64.9045C71.776 65.146 71.3048 65.2668 70.7932 65.2668C70.1065 65.2668 69.5275 65.0119 69.0428 64.4887C68.5581 63.9655 68.3158 63.2008 68.3158 62.1678C68.3158 60.9604 68.6659 59.9944 69.366 59.27C70.0661 58.5456 70.9951 58.0358 72.153 57.7406C72.4761 57.687 72.7723 57.6467 73.0282 57.5931C73.284 57.5394 73.5263 57.4857 73.7821 57.4455V63.7911H73.7956Z" fill="#4C4C4C"/>
<path id="Vector_16" d="M95.1224 64.7704L94.7454 64.3947C94.3415 64.8509 93.9376 65.2131 93.5337 65.468C93.1297 65.7229 92.6585 65.8705 92.1334 65.8705C91.5275 65.8705 91.0294 65.6424 90.6389 65.1863C90.2485 64.7301 90.0465 64.0728 90.0465 63.1873V49.5705H94.3415V48.8193H90.0869L90.1946 43.5201H89.8176L86.7075 46.9545C86.1554 47.5045 85.59 47.9473 85.0245 48.2826C84.459 48.618 83.7723 48.8595 82.9914 49.0339L82.0759 49.1815V49.5571H84.6879V62.4897C84.6879 64.2606 85.1322 65.5351 86.0343 66.34C86.9364 67.1449 88.1885 67.5474 89.8042 67.5474C91.0698 67.5474 92.1469 67.2925 93.0355 66.7961C93.9241 66.2998 94.6108 65.6156 95.1224 64.757V64.7704Z" fill="#4C4C4C"/>
<path id="Vector_17" d="M113.568 66.9974C114.133 66.6754 114.659 66.2059 115.143 65.6022L114.807 65.2936H113.972C112.908 65.2936 112.383 64.7302 112.383 63.5898V55.2319C112.383 52.7635 111.764 50.9792 110.539 49.8791C109.313 48.779 107.577 48.229 105.328 48.229C103.941 48.229 102.649 48.4034 101.464 48.7522C100.279 49.101 99.3231 49.6376 98.5961 50.3352C97.869 51.0463 97.519 51.9049 97.519 52.9379C97.519 53.6221 97.7344 54.1587 98.1652 54.5612C98.5961 54.9636 99.1346 55.1649 99.7944 55.1649C100.508 55.1649 101.1 54.91 101.572 54.4136C102.056 53.9038 102.312 53.1123 102.366 52.0256L102.447 51.6097C102.541 50.6572 102.77 49.973 103.133 49.584C103.483 49.1949 103.968 48.9937 104.574 48.9937C105.463 48.9937 106.109 49.3425 106.526 50.0401C106.944 50.7377 107.146 51.9317 107.146 53.6489V56.6406C106.594 56.7345 106.055 56.8418 105.557 56.9223C105.045 57.0162 104.601 57.0967 104.197 57.1638C101.599 57.6736 99.6867 58.4114 98.4614 59.4176C97.2497 60.4103 96.6438 61.497 96.6438 62.691C96.6438 64.2472 97.142 65.4546 98.1383 66.2864C99.1346 67.1181 100.373 67.534 101.841 67.534C103.106 67.534 104.13 67.2523 104.938 66.6888C105.732 66.1254 106.513 65.4412 107.267 64.6228C107.469 65.4814 107.886 66.1656 108.532 66.6888C109.179 67.1986 110.054 67.4669 111.171 67.4669C112.208 67.4669 113.016 67.3059 113.581 66.9706L113.568 66.9974ZM107.132 63.7777C106.526 64.2874 106.001 64.6497 105.557 64.8911C105.113 65.1326 104.641 65.2534 104.13 65.2534C103.443 65.2534 102.864 64.9985 102.379 64.4753C101.895 63.9521 101.652 63.1874 101.652 62.1544C101.652 60.947 102.002 59.981 102.703 59.2566C103.403 58.5322 104.332 58.0224 105.49 57.7272C105.813 57.6736 106.109 57.6333 106.365 57.5797C106.621 57.526 106.863 57.4723 107.119 57.4321V63.7777H107.132Z" fill="#4C4C4C"/>
<path id="Vector_18" d="M116.517 66.4742L116.059 66.6217V66.9974H125.133V66.6217L124.635 66.5144C124.151 66.3668 123.814 66.1254 123.612 65.8168C123.41 65.5083 123.302 65.0924 123.302 64.5826C123.302 63.6703 123.302 62.7581 123.289 61.8458C123.289 60.9201 123.275 59.9944 123.275 59.0688V46.1362L123.423 40.837L122.966 40.5016L116.018 42.1249V42.5005L116.517 42.6079C117.028 42.742 117.378 42.9298 117.58 43.1981C117.782 43.4665 117.89 43.8421 117.89 44.3519V64.5826C117.89 65.5351 117.432 66.1656 116.53 66.4742H116.517Z" fill="#4C4C4C"/>
<path id="Vector_19" d="M131.354 46.2837C132.215 46.2837 132.929 46.0154 133.521 45.4654C134.114 44.9153 134.397 44.2311 134.397 43.3994C134.397 42.5676 134.1 41.8432 133.521 41.32C132.942 40.7968 132.215 40.5284 131.354 40.5284C130.492 40.5284 129.765 40.7968 129.173 41.32C128.58 41.8432 128.284 42.5408 128.284 43.3994C128.284 44.258 128.58 44.9153 129.173 45.4654C129.765 46.002 130.492 46.2837 131.354 46.2837Z" fill="#4C4C4C"/>
<path id="Vector_20" d="M134.356 65.8302C134.168 65.5351 134.073 65.1192 134.073 64.6228V54.0379L134.181 48.6717L133.804 48.2961L126.857 50.5231V50.8987L127.382 51.006C127.88 51.1134 128.23 51.2878 128.432 51.5561C128.621 51.8244 128.715 52.2134 128.715 52.7501V64.5826C128.715 65.0924 128.621 65.4949 128.432 65.79C128.244 66.0851 127.894 66.3132 127.382 66.4742L126.857 66.6218V66.9974H135.73V66.6218L135.353 66.5144C134.868 66.3669 134.531 66.1388 134.343 65.8302H134.356Z" fill="#4C4C4C"/>
<path id="Vector_21" d="M156.774 52.1463L155.023 51.3951C153.704 50.7914 152.707 50.1072 152.021 49.3291C151.334 48.5644 150.998 47.5314 150.998 46.2435C150.998 44.9556 151.442 43.9763 152.33 43.2384C153.219 42.5005 154.31 42.1249 155.589 42.1249C156.02 42.1249 156.37 42.1383 156.652 42.1786C156.935 42.2188 157.231 42.2859 157.568 42.3798C158.12 42.5274 158.618 42.7957 159.049 43.1579C159.48 43.5201 159.911 44.1507 160.341 45.0227L161.89 47.8534H162.267L162.496 43.3189C161.607 42.7152 160.57 42.2322 159.359 41.8834C158.16 41.5346 156.881 41.3468 155.548 41.3468C153.704 41.3468 152.088 41.6419 150.715 42.2188C149.341 42.7957 148.264 43.6275 147.483 44.7141C146.716 45.8008 146.326 47.0887 146.326 48.5644C146.326 50.6304 146.945 52.2939 148.17 53.5416C149.395 54.7892 151.092 55.8893 153.273 56.8552L154.821 57.5394C156.168 58.1968 157.137 58.8675 157.743 59.5652C158.349 60.2628 158.659 61.2153 158.659 62.4629C158.659 63.7776 158.214 64.8375 157.312 65.6827C156.41 66.5144 155.198 66.9303 153.65 66.9303C153.071 66.9303 152.546 66.8901 152.075 66.7961C151.603 66.7022 151.119 66.5413 150.607 66.2864C149.894 65.9778 149.341 65.5619 148.938 65.0253C148.534 64.4887 148.157 63.8581 147.793 63.1471L146.622 60.6921H146.245L146.056 65.8302C147.012 66.3803 148.224 66.8364 149.665 67.1718C151.105 67.5072 152.519 67.6816 153.919 67.6816C157.002 67.6816 159.386 66.984 161.069 65.5887C162.752 64.1935 163.586 62.3824 163.586 60.1688C163.586 58.2773 163.061 56.7345 161.998 55.5405C160.934 54.3465 159.197 53.2196 156.76 52.1598L156.774 52.1463Z" fill="#4C4C4C"/>
<path id="Vector_22" d="M183.136 65.307C182.072 65.307 181.547 64.7436 181.547 63.6032V55.2453C181.547 52.7769 180.928 50.9926 179.703 49.8925C178.477 48.7924 176.741 48.2424 174.492 48.2424C173.105 48.2424 171.813 48.4168 170.628 48.7656C169.443 49.1144 168.487 49.651 167.76 50.3486C167.033 51.0597 166.683 51.9183 166.683 52.9513C166.683 53.6355 166.898 54.1721 167.329 54.5746C167.76 54.977 168.299 55.1783 168.958 55.1783C169.672 55.1783 170.264 54.9234 170.736 54.427C171.22 53.9172 171.476 53.1257 171.53 52.039L171.611 51.6231C171.705 50.6706 171.934 49.9864 172.297 49.5974C172.648 49.2083 173.132 49.0071 173.738 49.0071C174.627 49.0071 175.273 49.3559 175.69 50.0535C176.108 50.7511 176.31 51.9451 176.31 53.6623V56.654C175.758 56.7479 175.219 56.8552 174.721 56.9357C174.209 57.0296 173.765 57.1101 173.361 57.1772C170.763 57.687 168.851 58.4248 167.625 59.431C166.414 60.4237 165.808 61.5104 165.808 62.7044C165.808 64.2606 166.306 65.468 167.302 66.2998C168.299 67.1315 169.537 67.5474 171.005 67.5474C172.271 67.5474 173.294 67.2657 174.102 66.7022C174.896 66.1388 175.677 65.4546 176.431 64.6362C176.633 65.4948 177.05 66.179 177.696 66.7022C178.343 67.212 179.218 67.4803 180.335 67.4803C181.372 67.4803 182.18 67.3194 182.745 66.984C183.311 66.6486 183.836 66.1924 184.321 65.5887L183.984 65.2802H183.149L183.136 65.307ZM176.31 63.7911C175.704 64.3008 175.179 64.6631 174.734 64.9045C174.29 65.146 173.819 65.2668 173.307 65.2668C172.621 65.2668 172.042 65.0119 171.557 64.4887C171.072 63.9655 170.83 63.2008 170.83 62.1678C170.83 60.9604 171.18 59.9944 171.88 59.27C172.58 58.5456 173.509 58.0358 174.667 57.7406C174.99 57.687 175.286 57.6467 175.542 57.5931C175.798 57.5394 176.04 57.4857 176.296 57.4455V63.7911H176.31Z" fill="#4C4C4C"/>
<path id="Vector_23" d="M197.623 48.2558C196.936 48.2558 196.25 48.4436 195.55 48.8193C194.849 49.1949 194.217 49.6779 193.651 50.2682C193.086 50.8584 192.614 51.5158 192.264 52.2134V51.9049L191.928 48.6583L191.551 48.2827L185.021 50.4694V50.845L185.586 50.9926C186.098 51.0999 186.435 51.2743 186.636 51.5426C186.838 51.8109 186.919 52.2134 186.919 52.7635V64.596C186.919 65.0789 186.825 65.468 186.636 65.7631C186.448 66.0583 186.098 66.2863 185.586 66.4473L185.021 66.5949V66.9705H194.849V66.5949L193.638 66.2595C192.749 66.0046 192.305 65.3741 192.305 64.3679V53.8233C192.453 53.4208 192.614 53.0586 192.776 52.75C192.938 52.4281 193.153 52.1597 193.409 51.9317C193.692 51.5829 193.988 51.4219 194.324 51.4621C194.648 51.5024 194.944 51.6902 195.2 52.0524L195.28 52.1329C196.088 53.1927 197.031 53.716 198.094 53.716C198.781 53.716 199.36 53.4879 199.858 53.0183C200.356 52.5488 200.599 51.8914 200.599 51.0328C200.599 50.2279 200.343 49.5571 199.845 49.0339C199.346 48.5107 198.606 48.2424 197.65 48.2424L197.623 48.2558Z" fill="#4C4C4C"/>
<path id="Vector_24" d="M231.552 64.6631V53.5818C231.552 51.7439 231.121 50.3889 230.286 49.5303C229.452 48.6717 228.119 48.2424 226.328 48.2424C225.237 48.2424 224.12 48.5107 222.976 49.0608C221.831 49.6108 220.754 50.3352 219.771 51.2743C219.394 50.2413 218.829 49.4766 218.102 48.9937C217.375 48.4973 216.392 48.2558 215.18 48.2558C213.968 48.2558 212.891 48.551 211.827 49.1278C210.75 49.7047 209.794 50.4157 208.96 51.2475L208.663 48.6717L208.286 48.2961L201.797 50.4828V50.8584L202.362 51.006C202.874 51.1133 203.211 51.2877 203.386 51.556C203.561 51.8244 203.655 52.2268 203.655 52.7769V64.6094C203.628 65.1192 203.52 65.5217 203.332 65.8168C203.143 66.1254 202.807 66.34 202.322 66.4608L201.797 66.6083V66.984H210.71V66.6083L210.373 66.501C209.485 66.2461 209.04 65.629 209.04 64.6496V51.9853C209.673 51.4353 210.279 51.006 210.858 50.7243C211.437 50.4291 212.016 50.295 212.608 50.295C213.497 50.295 214.116 50.5096 214.48 50.9389C214.843 51.3682 215.032 52.0927 215.032 53.0988V64.6228C215.032 65.1326 214.938 65.5217 214.749 65.8168C214.561 66.1119 214.224 66.3266 213.739 66.4742L213.214 66.6217V66.9974H222.02V66.6217L221.683 66.5144C220.794 66.2595 220.337 65.6424 220.323 64.6631V54.8697C220.323 54.3465 220.31 53.8367 220.269 53.3537C220.229 52.8708 220.148 52.4281 220.027 52.0256C220.714 51.4487 221.36 51.006 221.979 50.7243C222.599 50.4291 223.231 50.295 223.891 50.295C224.726 50.295 225.332 50.4962 225.709 50.8853C226.086 51.2743 226.274 51.9988 226.274 53.0586V64.6228C226.274 65.1326 226.18 65.5351 225.991 65.8302C225.803 66.1388 225.466 66.3534 224.982 66.5144L224.605 66.6217V66.9974H233.37V66.6217L232.952 66.5144C232.037 66.2595 231.592 65.6424 231.592 64.6631H231.552Z" fill="#4C4C4C"/>
<path id="Vector_25" d="M242.377 65.8302C242.188 65.5351 242.094 65.1192 242.094 64.6228V54.0379L242.202 48.6717L241.825 48.2961L234.878 50.5231V50.8987L235.403 51.006C235.901 51.1134 236.251 51.2878 236.453 51.5561C236.641 51.8244 236.736 52.2134 236.736 52.7501V64.5826C236.736 65.0924 236.641 65.4949 236.453 65.79C236.264 66.0851 235.914 66.3132 235.403 66.4742L234.878 66.6218V66.9974H243.75V66.6218L243.373 66.5144C242.889 66.3669 242.552 66.1388 242.364 65.8302H242.377Z" fill="#4C4C4C"/>
<path id="Vector_26" d="M239.361 46.2837C240.223 46.2837 240.936 46.0154 241.529 45.4654C242.121 44.9153 242.404 44.2311 242.404 43.3994C242.404 42.5676 242.108 41.8432 241.529 41.32C240.95 40.7968 240.223 40.5284 239.361 40.5284C238.499 40.5284 237.772 40.7968 237.18 41.32C236.588 41.8432 236.291 42.5408 236.291 43.3994C236.291 44.258 236.588 44.9153 237.18 45.4654C237.772 46.002 238.499 46.2837 239.361 46.2837Z" fill="#4C4C4C"/>
<path id="Vector_27" d="M259.166 49.2486C258.009 48.5778 256.595 48.2424 254.952 48.2424C253.31 48.2424 251.883 48.618 250.455 49.3827C249.028 50.134 247.857 51.2475 246.941 52.6964C246.026 54.1453 245.581 55.9027 245.581 57.9687C245.581 60.0347 245.972 61.6714 246.753 63.1069C247.534 64.5423 248.624 65.6424 250.011 66.4205C251.398 67.1986 253 67.5742 254.791 67.5742C256.581 67.5742 258.17 67.1852 259.476 66.4071C260.782 65.629 261.819 64.5423 262.6 63.1605L262.223 62.8251C261.536 63.6032 260.809 64.1935 260.015 64.596C259.22 64.9985 258.211 65.1997 256.945 65.1997C255.073 65.1997 253.66 64.596 252.717 63.402C251.761 62.208 251.277 60.2493 251.25 57.526H262.559C262.64 57.2979 262.694 57.043 262.707 56.7479C262.734 56.4527 262.748 56.171 262.748 55.9027C262.748 54.4404 262.438 53.1391 261.819 51.9853C261.2 50.845 260.311 49.9328 259.14 49.262L259.166 49.2486ZM257.766 56.7479H251.277C251.304 54.7087 251.465 53.1257 251.748 51.9988C252.044 50.8719 252.448 50.0937 252.96 49.651C253.471 49.2083 254.104 48.9937 254.831 48.9937C256.124 48.9937 256.999 49.5974 257.443 50.8048C257.901 52.0122 257.995 53.9977 257.739 56.7345L257.766 56.7479Z" fill="#4C4C4C"/>
<path id="Vector_28" d="M283.334 64.6631V53.7696C283.334 51.9049 282.89 50.5231 281.988 49.6108C281.086 48.6985 279.807 48.2558 278.137 48.2558C277.047 48.2558 275.956 48.5107 274.838 49.0071C273.721 49.5169 272.725 50.1608 271.836 50.9389L271.54 48.6717L271.163 48.2961L264.673 50.4828V50.8584L265.239 51.006C265.75 51.1133 266.087 51.2877 266.262 51.5561C266.437 51.8244 266.531 52.2268 266.531 52.7769V64.6094C266.531 65.5887 266.087 66.2059 265.198 66.4608L264.673 66.6083V66.984H273.586V66.6083L273.25 66.501C272.361 66.2461 271.917 65.629 271.917 64.6497V51.7975C273.223 50.684 274.448 50.134 275.552 50.134C277.168 50.134 277.976 50.9389 277.976 52.5488V64.6094C277.976 65.5619 277.531 66.179 276.643 66.4608L276.144 66.6083V66.984H285.098V66.6083L284.761 66.501C283.805 66.2461 283.321 65.629 283.321 64.6497L283.334 64.6631Z" fill="#4C4C4C"/>
<path id="Vector_29" d="M297.337 65.468C296.933 65.7363 296.461 65.8705 295.936 65.8705C295.33 65.8705 294.832 65.6424 294.442 65.1863C294.051 64.7301 293.849 64.0728 293.849 63.1873V49.5705H298.131V48.8193H293.876L293.984 43.5201H293.607L290.497 46.9545C289.945 47.5045 289.379 47.9473 288.814 48.2826C288.248 48.6046 287.562 48.8595 286.781 49.0339L285.865 49.1815V49.5571H288.477V62.4897C288.477 64.2606 288.922 65.5351 289.824 66.34C290.726 67.1449 291.978 67.5474 293.594 67.5474C294.859 67.5474 295.936 67.2925 296.811 66.7961C297.7 66.2998 298.387 65.6156 298.898 64.757L298.521 64.3813C298.117 64.8375 297.714 65.1997 297.31 65.4546L297.337 65.468Z" fill="#4C4C4C"/>
<path id="Vector_30" d="M317.761 52.7098C316.94 51.2743 315.823 50.1742 314.395 49.3961C312.968 48.618 311.366 48.2424 309.575 48.2424C307.785 48.2424 306.169 48.6315 304.742 49.4096C303.315 50.1877 302.184 51.3012 301.362 52.7366C300.541 54.1721 300.137 55.8759 300.137 57.8345C300.137 59.7932 300.528 61.5104 301.295 62.9727C302.062 64.435 303.166 65.5619 304.58 66.3534C305.994 67.1449 307.663 67.5474 309.589 67.5474C311.514 67.5474 313.17 67.1449 314.57 66.3534C315.971 65.5619 317.061 64.435 317.829 62.9861C318.596 61.5372 318.987 59.82 318.987 57.8211C318.987 55.8222 318.583 54.1184 317.761 52.683V52.7098ZM312.874 63.3752C312.632 64.6631 312.241 65.5485 311.716 66.0583C311.191 66.5681 310.477 66.8096 309.589 66.8096C308.7 66.8096 307.987 66.5547 307.448 66.0583C306.909 65.5619 306.519 64.6631 306.277 63.3752C306.034 62.0873 305.913 60.2762 305.913 57.9284C305.913 55.5807 306.034 53.7294 306.277 52.4415C306.519 51.1536 306.909 50.2682 307.448 49.7584C307.987 49.262 308.714 49.0071 309.589 49.0071C310.464 49.0071 311.177 49.262 311.716 49.7584C312.241 50.2682 312.632 51.1536 312.874 52.4415C313.116 53.7294 313.237 55.5539 313.237 57.9284C313.237 60.303 313.116 62.0873 312.874 63.3752Z" fill="#4C4C4C"/>
<path id="Vector_31" d="M40.257 29.608L39.4627 23.7454C39.5435 23.7857 39.6108 23.8393 39.6916 23.8796C39.7185 23.893 39.7454 23.893 39.7723 23.893C39.8262 23.893 39.8801 23.8662 39.907 23.8125C39.9474 23.7454 39.9204 23.6515 39.8531 23.6113C41.8458 24.7113 44.3905 25.959 46.5985 27.5286L45.508 29.38L45.104 33.3912C45.0906 33.5924 45.3195 33.6998 45.4676 33.5656L45.4945 33.5388C45.9119 33.1631 46.1408 32.6265 46.1138 32.0765C46.3696 30.8825 46.8813 30.7618 47.2987 30.8825C47.4872 30.9362 47.6353 31.0569 47.7699 31.1911L48.1738 34.5584C47.4064 34.8133 46.989 35.2828 46.8005 35.6584C46.7197 35.8328 46.8947 36.0073 47.0698 35.9402L47.7026 35.6584C47.5006 36.2085 47.3391 36.8927 47.5141 37.5232C47.5141 37.5232 47.4737 37.7379 47.4872 38.0062C47.4872 38.2208 47.7564 38.2879 47.8776 38.1135L49.4259 35.6853C49.399 36.6378 49.5471 37.161 49.7356 37.4159C49.8703 37.6037 50.1799 37.5232 50.1934 37.2817L50.3684 34.8803L49.8703 33.1229L50.153 32.385C50.4761 30.6679 48.645 26.8847 48.645 26.8847C44.8078 21.8807 41.4419 18.7817 38.6952 18.2316L37.0257 17.1181C37.093 17.1718 37.1873 17.2254 37.2546 17.2657C37.2815 17.2791 37.3084 17.2925 37.3354 17.2925C37.3892 17.2925 37.4431 17.2657 37.47 17.2254C37.5104 17.1584 37.4969 17.0645 37.4162 17.0108C37.3623 16.984 37.3084 16.9303 37.2546 16.9035C37.6585 16.4876 37.8739 15.951 37.7797 15.2131C37.672 14.435 37.2681 13.7776 36.6891 13.3215C37.4296 13.0398 38.1432 12.6507 38.7222 12.0739C39.9743 10.8396 40.3109 9.44441 40.2705 8.18335C40.2032 6.39907 39.3011 4.73554 37.8874 3.63547L37.4027 3.25983C36.6083 2.6293 35.6659 2.21342 34.6561 2.09268C33.1616 1.91827 32.0845 1.43531 31.8286 0.375482C31.7613 0.0803392 31.4247 -0.0806477 31.142 0.0266769C30.94 0.10717 30.6977 0.254742 30.4015 0.496222C30.4015 0.496222 28.6377 1.12675 27.1297 1.01943C26.0661 0.80478 26.4969 3.21958 26.6047 5.0441L22.9155 8.08944C21.9192 7.92845 20.8421 8.10285 19.6842 8.58581L13.9217 8.65289C13.4774 8.65289 13.06 8.81388 12.7368 9.12244C12.131 9.69931 11.2424 10.8933 10.8654 13.1874C8.69767 14.757 7.16279 18.1511 7.04162 22.6722C7.00122 24.2955 7.20318 25.8919 7.53978 27.4749C3.11016 30.2788 0 40.3941 0 40.3941L0.915545 41.0783C1.31946 41.8564 1.68299 41.5613 1.68299 41.5613L1.64259 42.1248L3.5814 43.2248L3.3929 43.8688C3.66218 44.0432 3.89107 44.1639 4.07956 44.2444C4.49694 44.4188 4.92778 44.1773 5.00857 43.7346L5.08935 43.3187C5.15667 42.9968 5.5202 42.9163 5.74908 43.1712C6.03182 43.4797 6.08568 43.9761 6.08568 43.9761C6.40881 44.1908 6.6377 43.9627 6.77234 43.7212C6.89351 43.5066 7.10894 43.3858 7.35129 43.3858C7.59364 43.3858 7.83599 43.5736 7.91677 43.8285L8.10526 44.4188C8.68421 45.8275 9.57283 44.714 9.57283 44.714C9.84211 44.8079 10.0575 44.8347 10.2326 44.8213C10.6365 44.8079 10.8519 44.3249 10.6365 43.909L10.2326 43.1175C11.0269 43.6407 11.8617 43.0504 11.8617 43.0504C11.8617 43.0504 11.8617 43.0638 11.8617 43.0773C12.0906 43.4931 12.5349 43.6541 12.9253 43.5468C15.4969 49.3423 18.5398 54.6817 22.1885 59.4174C22.1885 59.4174 29.2301 71.4378 28.6781 75.932C28.6781 75.932 28.0453 81.0031 32.0441 85.8998C32.2191 86.1144 32.4749 86.2217 32.7442 86.2217H32.825C32.9461 86.2217 33.0673 86.262 33.175 86.3022C33.2558 86.423 33.3501 86.5571 33.4308 86.6913C33.4578 86.7315 33.5116 86.7584 33.552 86.7584C33.5789 86.7584 33.6193 86.7584 33.6463 86.7315C33.6463 86.7315 33.6463 86.7047 33.6463 86.6913C33.8078 86.8523 34.0098 86.973 34.2387 86.9864C35.0465 87.0401 36.6487 86.9999 36.4602 85.8729C36.4198 85.6315 36.2987 85.4034 36.1236 85.229C35.7466 84.7863 34.8446 83.646 34.6157 82.2642C34.6157 82.2642 34.4541 80.9092 35.1946 79.5005C35.5043 78.9103 35.5581 78.2126 35.3293 77.5955C35.06 76.8845 34.4272 76.1601 32.9327 76.1064C32.7711 66.6753 32.4211 57.499 26.5912 54.9635C26.5912 54.9635 24.3427 54.3463 23.3733 50.4827C23.3733 50.4827 21.7442 40.2197 19.2534 36.5707C20.1285 35.5914 20.7882 34.8267 20.7882 34.8267L23.3329 34.062C24.2619 33.7803 24.7466 32.7473 24.4639 31.674L24.3562 31.2581C24.235 30.8288 24.4908 30.4398 24.8947 30.4398C25.8237 30.4398 25.9045 29.6885 25.9045 29.6885C27.4933 29.6483 26.0122 28.253 26.0122 28.253C25.2448 26.67 26.4835 26.8578 26.4835 26.8578L27.1567 27.4347C27.6952 27.153 27.8972 26.2273 27.9645 25.6504C28.0049 25.3687 28.2338 25.2077 28.4896 25.2614H28.53C28.7858 25.3285 28.9878 25.1272 28.9474 24.8455C28.907 24.5235 29.1224 24.282 29.4725 24.3089L30.0649 24.3625C30.2534 24.3759 30.4284 24.282 30.4823 24.0942C30.7111 23.3966 30.3611 22.6185 30.0783 22.1624C29.9302 21.9209 29.661 21.827 29.4455 21.9343L28.8262 22.2563C28.2607 20.9013 26.9547 21.8404 26.9547 21.8404C22.1346 18.7817 17.5704 20.0427 14.716 21.505C15.0392 20.8477 15.7258 20.5659 15.7258 20.5659C19.5092 19.3317 21.3807 18.3389 22.3366 17.695C22.3097 17.7218 22.2962 17.7487 22.2558 17.7755C22.1885 17.8291 22.175 17.9231 22.2289 17.9901C22.2827 18.0572 22.377 18.0706 22.4443 18.017C22.6597 17.856 22.7809 17.695 22.929 17.5206C25.3121 18.1914 28.8262 19.2512 29.5936 19.8146C30.5226 20.4184 31.5324 20.8476 32.5826 21.1428C33.8617 21.4916 35.6928 22.2026 36.7834 23.5039C36.7834 23.5039 35.7736 24.5638 35.5716 25.3285C35.41 25.9322 35.2889 27.3676 35.4504 28.253C35.5177 28.6019 35.989 28.6421 36.1236 28.3335C36.2717 27.9982 36.3929 27.4481 36.4333 26.5627L36.7834 25.8517C36.7834 25.8517 38.5606 27.9982 36.7834 31.2984C36.7834 31.2984 36.5949 31.7009 36.6891 32.0094C36.6891 32.0094 36.3794 32.4119 36.4872 32.8278C36.4872 32.8278 36.339 33.9547 36.9988 33.3912C36.9988 33.3912 38.049 33.351 38.5741 32.2911C38.4259 32.6668 38.2509 33.2839 38.6952 33.2436C38.6952 33.2436 39.7454 32.6265 40.2032 30.3995C40.257 30.1581 40.2705 29.9032 40.2301 29.6617L40.257 29.608ZM32.7173 13.563C32.7173 13.563 32.7846 13.563 32.8115 13.5764C32.8115 13.5764 32.7846 13.5898 32.7711 13.6032C32.7442 13.5898 32.7307 13.5764 32.7038 13.5496L32.7173 13.563ZM27.4125 9.72614C27.9376 9.13585 28.8801 9.39075 29.0685 10.1554C29.1224 10.3701 29.2166 10.5311 29.284 10.7323C29.1089 10.5713 28.9878 10.4774 28.9743 10.464C28.907 10.4103 28.8127 10.4103 28.7589 10.4774C28.705 10.5445 28.705 10.6384 28.7723 10.6921C28.7723 10.6921 28.8801 10.786 29.0416 10.9201C28.0857 10.2225 27.3856 9.75297 27.3856 9.75297L27.4125 9.72614Z" fill="#4C4C4C"/>
</g>
<defs>
<clipPath id="clip0_1_688">
<rect width="319" height="87" fill="white"/>
</clipPath>
</defs>
</svg>
