<svg width="49" height="48" viewBox="0 0 49 48" fill="none" xmlns="http://www.w3.org/2000/svg">
<g clip-path="url(#clip0_9_302)">
<path d="M24.5 10.8827C28.772 10.8827 29.2787 10.8987 30.9653 10.976C32.7093 11.056 34.5053 11.4533 35.776 12.724C37.0587 14.0067 37.444 15.7853 37.524 17.5347C37.6013 19.2213 37.6173 19.728 37.6173 24C37.6173 28.272 37.6013 28.7787 37.524 30.4653C37.4453 32.2 37.0387 34.0133 35.776 35.276C34.4933 36.5587 32.716 36.944 30.9653 37.024C29.2787 37.1013 28.772 37.1173 24.5 37.1173C20.228 37.1173 19.7213 37.1013 18.0347 37.024C16.3133 36.9453 14.476 36.5293 13.224 35.276C11.948 34 11.556 32.204 11.476 30.4653C11.3987 28.7787 11.3827 28.272 11.3827 24C11.3827 19.728 11.3987 19.2213 11.476 17.5347C11.5547 15.8067 11.9653 13.9827 13.224 12.724C14.504 11.444 16.2893 11.056 18.0347 10.976C19.7213 10.8987 20.228 10.8827 24.5 10.8827ZM24.5 8C20.1547 8 19.6093 8.01867 17.9027 8.096C15.4293 8.20933 12.9733 8.89733 11.1853 10.6853C9.39067 12.48 8.70933 14.9307 8.596 17.4027C8.51867 19.1093 8.5 19.6547 8.5 24C8.5 28.3453 8.51867 28.8907 8.596 30.5973C8.70933 33.068 9.4 35.5307 11.1853 37.3147C12.9787 39.108 15.4333 39.7907 17.9027 39.904C19.6093 39.9813 20.1547 40 24.5 40C28.8453 40 29.3907 39.9813 31.0973 39.904C33.5693 39.7907 36.028 39.1013 37.8147 37.3147C39.6107 35.5187 40.2907 33.0693 40.404 30.5973C40.4813 28.8907 40.5 28.3453 40.5 24C40.5 19.6547 40.4813 19.1093 40.404 17.4027C40.2907 14.9293 39.6013 12.472 37.8147 10.6853C36.024 8.89467 33.5627 8.208 31.0973 8.096C29.3907 8.01867 28.8453 8 24.5 8Z" fill="#4C4C4C"/>
<path d="M24.5 15.7839C19.9627 15.7839 16.284 19.4626 16.284 23.9999C16.284 28.5373 19.9627 32.2159 24.5 32.2159C29.0373 32.2159 32.716 28.5373 32.716 23.9999C32.716 19.4626 29.0373 15.7839 24.5 15.7839ZM24.5 29.3333C21.5547 29.3333 19.1667 26.9453 19.1667 23.9999C19.1667 21.0546 21.5547 18.6666 24.5 18.6666C27.4453 18.6666 29.8333 21.0546 29.8333 23.9999C29.8333 26.9453 27.4453 29.3333 24.5 29.3333Z" fill="#4C4C4C"/>
<path d="M33.0413 17.3786C34.1017 17.3786 34.9613 16.519 34.9613 15.4586C34.9613 14.3982 34.1017 13.5386 33.0413 13.5386C31.9809 13.5386 31.1213 14.3982 31.1213 15.4586C31.1213 16.519 31.9809 17.3786 33.0413 17.3786Z" fill="#4C4C4C"/>
</g>
<defs>
<clipPath id="clip0_9_302">
<rect width="32" height="32" fill="white" transform="translate(8.5 8)"/>
</clipPath>
</defs>
</svg>
