<svg width="100" height="100" viewBox="0 0 100 100" fill="none" xmlns="http://www.w3.org/2000/svg">
<mask id="mask0_133_472" style="mask-type:alpha" maskUnits="userSpaceOnUse" x="0" y="0" width="100" height="100">
<rect width="100" height="100" fill="#D9D9D9"/>
</mask>
<g mask="url(#mask0_133_472)">
<path d="M32.4998 21.7709L28.3332 9.27085L34.1665 7.39585L38.3332 19.7917L32.4998 21.7709ZM46.8748 16.6667V4.16669H53.1248V16.6667H46.8748ZM67.4998 21.7709L61.6665 19.7917L65.8332 7.39585L71.6665 9.37502L67.4998 21.7709ZM8.95817 95.8334L7.70817 87.6042L29.6873 84.2709C30.4512 84.132 31.1283 83.8021 31.7186 83.2813C32.3089 82.7604 32.7429 82.1181 33.0207 81.3542L36.5623 70.3125C36.9096 69.3403 36.9096 68.4028 36.5623 67.5C36.2151 66.5972 35.5901 65.9028 34.6873 65.4167L31.2498 76.25L23.3332 73.75L32.4998 44.7917C32.6387 44.375 32.7082 43.9236 32.7082 43.4375C32.7082 42.9514 32.6387 42.5 32.4998 42.0834L18.5415 68.3334C17.4304 70.3472 15.8853 71.9618 13.9061 73.1771C11.9269 74.3924 9.7915 75 7.49984 75H4.1665V66.6667H7.49984C8.26373 66.6667 8.97553 66.4757 9.63525 66.0938C10.295 65.7118 10.7984 65.1736 11.1457 64.4792L29.5832 29.6875L34.7915 32.6042C37.3609 34.0625 39.1839 36.1632 40.2603 38.9063C41.3366 41.6493 41.4234 44.4445 40.5207 47.2917L37.2915 57.5C40.3471 58.6806 42.5519 60.7639 43.9061 63.75C45.2603 66.7361 45.4512 69.7917 44.479 72.9167L40.9373 83.9583C40.1734 86.1806 38.9061 88.0729 37.1353 89.6354C35.3644 91.1979 33.2984 92.1528 30.9373 92.5L8.95817 95.8334ZM91.0415 95.8334L69.0623 92.5C66.7012 92.1528 64.6353 91.1979 62.8644 89.6354C61.0936 88.0729 59.8262 86.1806 59.0623 83.9583L55.5207 72.9167C54.5484 69.7917 54.7394 66.7361 56.0936 63.75C57.4478 60.7639 59.6526 58.6806 62.7082 57.5L59.479 47.2917C58.5762 44.4445 58.663 41.6493 59.7394 38.9063C60.8158 36.1632 62.6387 34.0625 65.2082 32.6042L70.4165 29.6875L88.854 64.4792C89.2012 65.1736 89.7047 65.7118 90.3644 66.0938C91.0241 66.4757 91.7359 66.6667 92.4998 66.6667H95.8332V75H92.4998C90.2082 75 88.0728 74.3924 86.0936 73.1771C84.1144 71.9618 82.5693 70.3472 81.4582 68.3334L67.4998 42.0834C67.3609 42.5 67.2915 42.9514 67.2915 43.4375C67.2915 43.9236 67.3609 44.375 67.4998 44.7917L76.6665 73.75L68.7498 76.25L65.3123 65.4167C64.4096 65.9028 63.7846 66.5972 63.4373 67.5C63.0901 68.4028 63.0901 69.3403 63.4373 70.3125L66.979 81.3542C67.2568 82.1181 67.6908 82.7604 68.2811 83.2813C68.8714 83.8021 69.5484 84.132 70.3123 84.2709L92.2915 87.6042L91.0415 95.8334Z" fill="#00080A"/>
</g>
</svg>
