<svg width="100" height="100" viewBox="0 0 100 100" fill="none" xmlns="http://www.w3.org/2000/svg">
<mask id="mask0_133_465" style="mask-type:alpha" maskUnits="userSpaceOnUse" x="0" y="0" width="100" height="100">
<rect width="100" height="100" fill="#D9D9D9"/>
</mask>
<g mask="url(#mask0_133_465)">
<path d="M50 54.1667V16.6667C50 15.4861 50.3993 14.4965 51.1979 13.6979C51.9965 12.8993 52.9861 12.5 54.1667 12.5H83.3333C84.5139 12.5 85.5035 12.8993 86.3021 13.6979C87.1007 14.4965 87.5 15.4861 87.5 16.6667V37.5C87.5 38.6806 87.1007 39.6701 86.3021 40.4687C85.5035 41.2674 84.5139 41.6667 83.3333 41.6667H62.5L50 54.1667ZM58.3333 33.3333H79.1667V20.8333H58.3333V33.3333ZM83.125 87.5C74.4444 87.5 65.8681 85.6076 57.3958 81.8229C48.9236 78.0382 41.2153 72.6736 34.2708 65.7292C27.3264 58.7847 21.9618 51.0764 18.1771 42.6042C14.3924 34.1319 12.5 25.5556 12.5 16.875C12.5 15.625 12.9167 14.5833 13.75 13.75C14.5833 12.9167 15.625 12.5 16.875 12.5H33.75C34.7222 12.5 35.5903 12.8299 36.3542 13.4896C37.1181 14.1493 37.5694 14.9306 37.7083 15.8333L40.4167 30.4167C40.5556 31.5278 40.5208 32.4653 40.3125 33.2292C40.1042 33.9931 39.7222 34.6528 39.1667 35.2083L29.0625 45.4167C30.4514 47.9861 32.1007 50.4687 34.0104 52.8646C35.9201 55.2604 38.0208 57.5694 40.3125 59.7917C42.4653 61.9444 44.7222 63.941 47.0833 65.7812C49.4444 67.6215 51.9444 69.3056 54.5833 70.8333L64.375 61.0417C65 60.4167 65.816 59.9479 66.8229 59.6354C67.8299 59.3229 68.8194 59.2361 69.7917 59.375L84.1667 62.2917C85.1389 62.5694 85.9375 63.0729 86.5625 63.8021C87.1875 64.5312 87.5 65.3472 87.5 66.25V83.125C87.5 84.375 87.0833 85.4167 86.25 86.25C85.4167 87.0833 84.375 87.5 83.125 87.5ZM25.1042 37.5L31.9792 30.625L30.2083 20.8333H20.9375C21.2847 23.6806 21.7708 26.4931 22.3958 29.2708C23.0208 32.0486 23.9236 34.7917 25.1042 37.5ZM62.3958 74.7917C65.1042 75.9722 67.8646 76.9097 70.6771 77.6042C73.4896 78.2986 76.3194 78.75 79.1667 78.9583V69.7917L69.375 67.8125L62.3958 74.7917Z" fill="#00080A"/>
</g>
</svg>
