<svg width="100" height="100" viewBox="0 0 100 100" fill="none" xmlns="http://www.w3.org/2000/svg">
<mask id="mask0_133_479" style="mask-type:alpha" maskUnits="userSpaceOnUse" x="0" y="0" width="100" height="100">
<rect width="100" height="100" fill="#D9D9D9"/>
</mask>
<g mask="url(#mask0_133_479)">
<path d="M49.5833 70.8333C51.0417 70.8333 52.2743 70.3298 53.2813 69.3229C54.2882 68.3159 54.7917 67.0833 54.7917 65.625C54.7917 64.1666 54.2882 62.934 53.2813 61.9271C52.2743 60.9201 51.0417 60.4166 49.5833 60.4166C48.125 60.4166 46.8924 60.9201 45.8854 61.9271C44.8785 62.934 44.375 64.1666 44.375 65.625C44.375 67.0833 44.8785 68.3159 45.8854 69.3229C46.8924 70.3298 48.125 70.8333 49.5833 70.8333ZM45.8333 54.7916H53.5417C53.5417 53.6111 53.5937 52.6041 53.6979 51.7708C53.8021 50.9375 54.0278 50.1389 54.375 49.375C54.7222 48.6111 55.1562 47.8993 55.6771 47.2396C56.1979 46.5798 56.9444 45.7639 57.9167 44.7916C60.3472 42.3611 62.066 40.3298 63.0729 38.6979C64.0799 37.066 64.5833 35.2083 64.5833 33.125C64.5833 29.4444 63.3333 26.4757 60.8333 24.2187C58.3333 21.9618 54.9653 20.8333 50.7292 20.8333C46.9097 20.8333 43.6632 21.7708 40.9896 23.6458C38.316 25.5208 36.4583 28.125 35.4167 31.4583L42.2917 34.1666C42.7778 32.2916 43.75 30.7812 45.2083 29.6354C46.6667 28.4896 48.3681 27.9166 50.3125 27.9166C52.1875 27.9166 53.75 28.4201 55 29.4271C56.25 30.434 56.875 31.7708 56.875 33.4375C56.875 34.618 56.4931 35.868 55.7292 37.1875C54.9653 38.5069 53.6806 39.9653 51.875 41.5625C50.6944 42.5347 49.7396 43.4896 49.0104 44.4271C48.2812 45.3646 47.6736 46.3541 47.1875 47.3958C46.7014 48.4375 46.3542 49.5312 46.1458 50.6771C45.9375 51.8229 45.8333 53.1944 45.8333 54.7916ZM50 95.8333L37.5 83.3333H20.8333C18.5417 83.3333 16.5799 82.5173 14.9479 80.8854C13.316 79.2535 12.5 77.2916 12.5 75V16.6666C12.5 14.375 13.316 12.4132 14.9479 10.7812C16.5799 9.14929 18.5417 8.33331 20.8333 8.33331H79.1667C81.4583 8.33331 83.4201 9.14929 85.0521 10.7812C86.684 12.4132 87.5 14.375 87.5 16.6666V75C87.5 77.2916 86.684 79.2535 85.0521 80.8854C83.4201 82.5173 81.4583 83.3333 79.1667 83.3333H62.5L50 95.8333ZM20.8333 75H40.8333L50 84.1666L59.1667 75H79.1667V16.6666H20.8333V75Z" fill="#00080A"/>
</g>
</svg>
