<svg width="100" height="101" viewBox="0 0 100 101" fill="none" xmlns="http://www.w3.org/2000/svg">
<mask id="mask0_133_458" style="mask-type:alpha" maskUnits="userSpaceOnUse" x="0" y="0" width="100" height="101">
<rect y="0.5" width="100" height="100" fill="#D9D9D9"/>
</mask>
<g mask="url(#mask0_133_458)">
<path d="M87.6039 46.5417V79.6667C87.6039 81.9583 86.788 83.9201 85.156 85.5521C83.5241 87.184 81.5623 88 79.2706 88H20.9373C18.6456 88 16.6838 87.184 15.0519 85.5521C13.4199 83.9201 12.6039 81.9583 12.6039 79.6667V46.5417C11.0067 45.0833 9.77408 43.2083 8.90603 40.9167C8.03797 38.625 8.02061 36.125 8.85394 33.4167L13.2289 19.25C13.7845 17.4444 14.7741 15.9514 16.1977 14.7708C17.6213 13.5903 19.2706 13 21.1456 13H79.0623C80.9373 13 82.5692 13.5729 83.9581 14.7187C85.347 15.8646 86.3539 17.375 86.9789 19.25L91.3539 33.4167C92.1873 36.125 92.1699 38.5903 91.3019 40.8125C90.4338 43.0347 89.2012 44.9444 87.6039 46.5417ZM59.2706 42.1667C61.1456 42.1667 62.5692 41.5243 63.5414 40.2396C64.5137 38.9549 64.8956 37.5139 64.6873 35.9167L62.3956 21.3333H54.2706V36.75C54.2706 38.2083 54.7567 39.4757 55.7289 40.5521C56.7012 41.6285 57.8817 42.1667 59.2706 42.1667ZM40.5206 42.1667C42.1178 42.1667 43.4199 41.6285 44.4269 40.5521C45.4338 39.4757 45.9373 38.2083 45.9373 36.75V21.3333H37.8123L35.5206 35.9167C35.2428 37.5833 35.6074 39.0417 36.6144 40.2917C37.6213 41.5417 38.9234 42.1667 40.5206 42.1667ZM21.9789 42.1667C23.2289 42.1667 24.3227 41.7153 25.2602 40.8125C26.1977 39.9097 26.7706 38.7639 26.9789 37.375L29.2706 21.3333H21.1456L16.9789 35.2917C16.5623 36.6806 16.788 38.1736 17.656 39.7708C18.5241 41.3681 19.9651 42.1667 21.9789 42.1667ZM78.2289 42.1667C80.2428 42.1667 81.7012 41.3681 82.6039 39.7708C83.5067 38.1736 83.7151 36.6806 83.2289 35.2917L78.8539 21.3333H70.9373L73.2289 37.375C73.4373 38.7639 74.0102 39.9097 74.9477 40.8125C75.8852 41.7153 76.9789 42.1667 78.2289 42.1667ZM20.9373 79.6667H79.2706V50.2917C78.9234 50.4306 78.6977 50.5 78.5935 50.5H78.2289C76.3539 50.5 74.7046 50.1875 73.281 49.5625C71.8574 48.9375 70.4512 47.9306 69.0623 46.5417C67.8123 47.7917 66.3887 48.7639 64.7914 49.4583C63.1942 50.1528 61.4928 50.5 59.6873 50.5C57.8123 50.5 56.0588 50.1528 54.4269 49.4583C52.7949 48.7639 51.3539 47.7917 50.1039 46.5417C48.9234 47.7917 47.5519 48.7639 45.9894 49.4583C44.4269 50.1528 42.7428 50.5 40.9373 50.5C38.9234 50.5 37.1005 50.1528 35.4685 49.4583C33.8366 48.7639 32.3956 47.7917 31.1456 46.5417C29.6873 48 28.2463 49.0243 26.8227 49.6146C25.3991 50.2049 23.7845 50.5 21.9789 50.5H21.5102C21.3366 50.5 21.1456 50.4306 20.9373 50.2917V79.6667Z" fill="#00080A"/>
</g>
</svg>
